<?xml version="1.0" encoding="utf-8"?>
<!-- Generator: Adobe Illustrator 24.0.2, SVG Export Plug-In . SVG Version: 6.00 Build 0)  -->
<svg version="1.1" id="_x34_57bf273-24a3-4fd8-a857-e9b918267d6a"
	 xmlns="http://www.w3.org/2000/svg" xmlns:xlink="http://www.w3.org/1999/xlink" x="0px" y="0px" viewBox="0 0 698 698"
	 style="enable-background:new 0 0 698 698;" xml:space="preserve">
<style type="text/css">
	.st0{opacity:0.5;}
	.st1{fill:url(#SVGID_1_);}
	.st2{fill:#F5F5F5;}
	.st3{fill:#0C83C3;}
	.st4{fill:#333333;}
	.st5{opacity:0.1;enable-background:new    ;}
	.st6{fill:#FDB797;}
	.st7{fill:#C29579;}
	.st8{fill:#BD8D70;}
	.st9{fill:#F6DBCB;}
	.st10{fill:#AF8164;}
	.st11{fill:#B88D72;}
	.st12{fill:#5E200E;}
	.st13{fill:#551E0D;}
</style>
<title>profile pic</title>
<g class="st0">
	
		<linearGradient id="SVGID_1_" gradientUnits="userSpaceOnUse" x1="349" y1="2" x2="349" y2="700" gradientTransform="matrix(1 0 0 -1 0 700)">
		<stop  offset="0" style="stop-color:#808080;stop-opacity:0.25"/>
		<stop  offset="0.54" style="stop-color:#808080;stop-opacity:0.12"/>
		<stop  offset="1" style="stop-color:#808080;stop-opacity:0.1"/>
	</linearGradient>
	<circle class="st1" cx="349" cy="349" r="349"/>
</g>
<circle class="st2" cx="349.7" cy="346.8" r="341.6"/>
<path class="st3" d="M350,689.8c66.8,0.1,132.1-19.4,187.8-56.2c-12.6-68.8-60.5-72.7-60.5-72.7H213.1c0,0-45.2,3.7-59.3,67
	C211.2,668.3,279.8,689.9,350,689.8z"/>
<circle class="st4" cx="346.4" cy="339.6" r="164.9"/>
<path class="st5" d="M293.1,476.9h105.7l0,0v84.5c0,29.2-23.6,52.8-52.8,52.8l0,0c-29.2,0-52.8-23.7-52.8-52.8c0,0,0,0,0,0
	L293.1,476.9L293.1,476.9L293.1,476.9z"/>
<path class="st6" d="M293.1,470.5h99c1.9,0,3.4,1.5,3.4,3.4l0,0V555c0,29.2-23.6,52.8-52.8,52.8c0,0,0,0,0,0l0,0
	c-29.2,0-52.8-23.7-52.8-52.8c0,0,0,0,0,0v-81.2C289.7,472,291.2,470.5,293.1,470.5z"/>
<path class="st5" d="M293.3,516.8c34.1,12.7,71.5,12.8,105.7,0.3v-13H293.3V516.8z"/>
<circle class="st6" cx="346.4" cy="372.4" r="151.5"/>
<path class="st5" d="M238.5,234.7c0,0,63.8,129.6,243.9,54.3l-41.9-65.7l-74.3-26.7L238.5,234.7z"/>
<path class="st4" d="M238.5,232.8c0,0,63.8,129.6,243.9,54.3l-41.9-65.7l-74.3-26.7L238.5,232.8z"/>
<path class="st4" d="M237.9,224c4.3-13.3,11.7-25.4,21.7-35.3c29.8-29.5,78.6-35.7,103.7-69.2c6,9.3,1.4,23.6-9,27.6
	c24-0.2,51.8-2.3,65.4-22c6.8,15.9,3.9,34.4-7.6,47.4c21.3,1,44,15.4,45.3,36.6c0.9,14.2-8,27.6-19.6,35.7s-25.7,11.9-39.6,14.9
	C357.9,268.7,211.5,306.1,237.9,224z"/>
<ellipse class="st6" cx="194.9" cy="372.3" rx="14.1" ry="26.4"/>
<ellipse class="st6" cx="497.8" cy="372.3" rx="14.1" ry="26.4"/>
<g>
	<path class="st7" d="M577.8,198.3c-23.8,21.6-53.3,36.1-85.2,39.9c-2.7,0.3-4.9,0.5-6.5,0.5c-12.6,0-14.2-13.4-14.2-13.4
		c-15.7-75.5-72.6-185.7-111.6-185.9c-7.5,0-19.8,0.4-27.3,0c-43.1-2.3-97.1,109.6-113,185.9c0,0-1.6,13.4-14.2,13.4
		c-1.6,0-3.8-0.2-6.5-0.5c-31.9-3.8-61.5-18.2-85.2-39.9c-0.2-0.2-0.5-0.4-0.7-0.6c-9.5-8.4-23.3,3.3-16.7,14.1
		c8.1,13.2,18.3,28.5,25,34C134.2,256,239.7,326,345.9,326c109,0,211.7-70,224.3-80.3c6.7-5.4,16.8-20.7,25-34
		c6.6-10.8-7.2-22.5-16.7-14.1C578.3,197.9,578.1,198.1,577.8,198.3z"/>
	<path class="st8" d="M530.1,267.6c-42.3,25-90.3,37.9-139.1,40.9c-26.4,1.6-57.2,1.4-79.9-14c-6-4.1-16.4-11-15-19.6
		c1.4-8.8,12.5-17.9,18.5-23.6c9.6-9.3,20.1-18,26.8-29.7c10-17.7,9.1-38.6,6-58c-3.4-21.2-10.2-41.4-12-62.9
		c-1.2-13.7-2.7-45.1,7.4-61c-3.5,0-6.9,0-9.6-0.2c-43.1-2.3-97.1,109.6-113,185.9c0,0-1.6,13.4-14.2,13.4c-1.6,0-3.8-0.2-6.5-0.5
		c-31.9-3.8-61.5-18.2-85.2-39.9c-0.2-0.2-0.5-0.4-0.7-0.6c-9.5-8.4-23.3,3.3-16.7,14.1c8.1,13.2,18.3,28.5,25,34
		C134.2,256,239.7,326,345.9,326c109,0,211.7-70,224.3-80.3c6.7-5.4,16.8-20.7,25-34c1.6-2.7,2-5.4,1.5-7.8
		C581.3,230.2,557,251.7,530.1,267.6z"/>
	<g>
		<path class="st9" d="M205.8,238.7c0,0,140.9,33.6,280.2,0l-8.2-13.1c-139.3,33.6-262.3,0-262.3,0L205.8,238.7z"/>
		<g>
			<path class="st10" d="M286.4,96.9c-16.8,22,10.7,29.7,17.6,7.9C310.9,83,344.2,21.2,286.4,96.9z"/>
			<path class="st11" d="M405.6,96.9c16.8,22-10.7,29.7-17.6,7.9C381.1,83,347.7,21.2,405.6,96.9z"/>
		</g>
	</g>
</g>
<g>
	<path class="st12" d="M344,678.6c0.6,0,1.2-0.3,1.7-0.8c14.6-17.1,29.3-34.4,40.7-54.2c11-19.2,18.9-41.1,19.4-63.6
		c0-1.7-1.4-3-2.9-2.5l0,0c-0.1,0-0.3,0.1-0.4,0.2c-17.5,10.8-37.3,17.1-57.4,18.5c-0.1,0-0.1,0-0.2,0h-3.5c-0.1,0-0.1,0-0.2,0
		c-20.1-1.4-39.9-7.7-57.4-18.5c-0.1-0.1-0.3-0.2-0.4-0.2l0,0c-1.5-0.5-3,0.8-2.9,2.5c0.5,22.6,8.4,44.5,19.4,63.6
		c11.4,19.8,26.1,37.1,40.7,54.2c0.4,0.5,1,0.8,1.7,0.8H344z"/>
	<g>
		<path class="st13" d="M405.4,558.5c0.1,0.1,0.1,0.3,0.1,0.5c-9.7,61.3-35.2,71.4-41.8,79.9c-7.5,9.7-9.7,21.7-14,31.5
			c-0.9,2-3,4.3-5.4,6c-8.9-7.5-30.6-25.5-31.6-50.5c-0.2-5.7-3.9-15.5-6.8-20.2c-6-9.6-14.9-16.3-22.8-24c0.8,0.8,1.2,4.5,1.5,5.7
			c0.7,2.3,1.4,4.5,2.1,6.8c1.5,4.5,3.2,8.9,5.1,13.2c3.7,8.7,8.2,16.9,13.3,24.7c10.7,16.3,23.1,31.1,35.6,45.7
			c0.1,0.1,0.2,0.2,0.3,0.3h0l0,0c0.2,0.2,0.4,0.3,0.6,0.3c0,0,0.1,0,0.1,0c0.2,0.1,0.4,0.1,0.7,0.1h1.8c0.6,0,1.2-0.3,1.7-0.8
			c14.6-17.1,29.3-34.4,40.7-54.2c11-19.2,18.9-41.1,19.4-63.6C405.8,559.4,405.6,558.9,405.4,558.5z"/>
		<path class="st13" d="M366.1,604.7c-5.6,2.1-11.4,3.7-16.9,6c-6.8,2.8-12.8,7.1-17,13.8c-2.9,4.6-4.7,9.8-6.8,14.8
			c18.2-14.2,59.8-15,57-46.4c-1.4,0.8-2.3,2.1-3.4,3.2c0.1,0.3,0.1,0.6-0.1,0.8C375.6,601,370.7,603,366.1,604.7z"/>
		<path class="st13" d="M308,587.3c20.7,6.9,43,5.5,64.1,0.2c7.3-1.8,14.6-4.2,20.4-9.4c1.9-1.7-0.1-3.3-1.7-3.9
			c-0.4-0.2-0.8-0.2-1.2-0.3c-1.9-0.2-3.8,0.6-5.7,1.1c-2.5,0.7-4.9,1.3-7.4,2c-9.9,2.5-19.9,4.6-30,5.3c-5.1,0.4-10.1,0.3-15.2,0
			c-7.5-0.5-15-2-22.1-4.5c-4.3-1.6-8.7-2.9-13.1-4.1c-3.6-0.9-8.1-1.3-4.3,3.8C295.5,582.5,302.5,585.5,308,587.3z"/>
	</g>
</g>
</svg>
